<svg xmlns="http://www.w3.org/2000/svg" xmlns:xlink="http://www.w3.org/1999/xlink" width="515" zoomAndPan="magnify" viewBox="0 0 386.25 101.999999" height="136" preserveAspectRatio="xMidYMid meet" version="1.0"><defs><g/></defs><g fill="#ffffff" fill-opacity="1"><g transform="translate(18.023596, 78.696219)"><g><path d="M 5.9375 -2.359375 L 5.859375 -26.78125 L 6.03125 -28.65625 L 5.859375 -30.203125 L 5.9375 -31.75 L 6.109375 -33.21875 L 5.9375 -35.09375 L 6.109375 -36.5625 L 6.03125 -38.265625 L 5.859375 -39.65625 L 6.1875 -48.765625 L 5.9375 -51.21875 L 6.1875 -54.546875 L 6.671875 -56.015625 L 8.46875 -56.90625 L 10.75 -56.828125 L 12.453125 -57 L 16.609375 -57 L 18.078125 -56.828125 L 21.25 -56.828125 L 23.78125 -57 L 25.40625 -56.90625 L 27.84375 -57.078125 L 29.3125 -56.90625 L 32.484375 -57.078125 L 34.28125 -56.828125 L 39.15625 -56.90625 L 40.546875 -56.015625 L 41.53125 -53.578125 L 41.359375 -50.484375 L 41.53125 -46.328125 L 40.703125 -44.703125 L 39.078125 -43.890625 L 32.890625 -44.046875 L 31.1875 -43.890625 L 29.5625 -43.96875 L 28.09375 -43.890625 L 25.734375 -44.046875 L 23.125 -44.046875 L 21.578125 -42.984375 L 20.765625 -41.359375 L 20.921875 -37.703125 L 20.765625 -36.15625 L 20.765625 -33.875 L 21.65625 -32.15625 L 23.28125 -31.515625 L 25.078125 -31.59375 L 28.25 -31.1875 L 32.5625 -31.515625 L 36.5625 -31.34375 L 38.265625 -30.703125 L 39.078125 -29.0625 L 39.15625 -21.828125 L 38.34375 -19.296875 L 36.640625 -18.484375 L 33.296875 -18.3125 L 31.671875 -18.484375 L 29.96875 -18.40625 L 28.328125 -18.5625 L 26.703125 -18.234375 L 25 -18.5625 L 23.203125 -18.40625 L 21.578125 -17.671875 L 20.84375 -16.046875 L 20.921875 -7.40625 L 20.765625 -5.859375 L 21 -3.25 L 20.03125 -0.8125 L 18.3125 -0.078125 L 14.25 0.25 L 8.546875 0 L 6.765625 -0.8125 Z M 5.9375 -2.359375 "/></g></g></g><g fill="#ffffff" fill-opacity="1"><g transform="translate(62.395374, 78.696219)"><g><path d="M 5.859375 -2.359375 L 6.1875 -3.984375 L 6.265625 -5.625 L 6.109375 -8.796875 L 6.109375 -10.421875 L 5.9375 -12.296875 L 6.1875 -13.765625 L 6.109375 -15.3125 L 6.265625 -17.09375 L 6.03125 -18.8125 L 6.1875 -22.0625 L 5.9375 -25.234375 L 6.1875 -26.953125 L 6.1875 -41.53125 L 6.03125 -42.984375 L 6.1875 -44.703125 L 5.859375 -48.859375 L 6.1875 -51.21875 L 6.03125 -54.46875 L 6.84375 -56.265625 L 9.203125 -56.828125 L 19.859375 -57.078125 L 21.328125 -56.90625 L 24.515625 -57 L 26.140625 -56.828125 L 29.71875 -57 L 31.34375 -56.75 L 32.8125 -56.90625 L 39.328125 -56.828125 L 41.03125 -56.09375 L 41.84375 -54.46875 L 41.609375 -52.921875 L 41.53125 -51.140625 L 41.765625 -49.578125 L 41.9375 -46.25 L 41.03125 -44.78125 L 39.328125 -43.890625 L 23.6875 -43.8125 L 21.171875 -43.078125 L 20.359375 -40.703125 L 20.515625 -38.1875 L 21.5 -36.71875 L 22.875 -35.828125 L 29.3125 -35.90625 L 31.1875 -35.75 L 32.890625 -35.75 L 34.515625 -35.90625 L 37.78125 -35.828125 L 39.15625 -34.9375 L 39.890625 -33.390625 L 40.0625 -31.75 L 39.890625 -25.328125 L 39.078125 -23.78125 L 37.453125 -22.875 L 35.984375 -22.796875 L 34.28125 -22.96875 L 32.078125 -22.796875 L 27.765625 -23.046875 L 26.140625 -22.875 L 22.96875 -22.875 L 21.5 -21.984375 L 20.765625 -20.28125 L 20.6875 -16.28125 L 21.40625 -13.765625 L 23.125 -12.78125 L 24.921875 -12.953125 L 26.703125 -12.78125 L 28.25 -13.03125 L 39 -12.859375 L 41.4375 -12.046875 L 42.5 -10.421875 L 42.34375 -8.875 L 42.421875 -3.828125 L 42.265625 -2.28125 L 41.53125 -0.734375 L 39.8125 0.078125 L 38.265625 0.25 L 33.296875 -0.078125 L 28.328125 0.15625 L 26.875 -0.078125 L 8.46875 0.078125 L 6.921875 -0.8125 Z M 5.859375 -2.359375 "/></g></g></g><g fill="#ffffff" fill-opacity="1"><g transform="translate(109.046806, 78.696219)"><g><path d="M 6.109375 -2.53125 L 6.265625 -5.625 L 6.03125 -12.125 L 6.1875 -13.765625 L 6.03125 -20.28125 L 6.265625 -23.453125 L 6.03125 -25.15625 L 6.265625 -26.703125 L 6.03125 -30.203125 L 6.265625 -33.296875 L 5.9375 -39.8125 L 6.1875 -41.4375 L 5.9375 -43.078125 L 6.1875 -44.859375 L 6.03125 -47.953125 L 6.109375 -49.578125 L 5.9375 -51.21875 L 5.9375 -54.546875 L 7.171875 -56.09375 L 8.625 -57 L 10.34375 -56.90625 L 11.8125 -57 L 13.4375 -56.828125 L 18.640625 -57 L 20.28125 -56.828125 L 31.84375 -56.75 L 35.171875 -56.09375 L 39.65625 -54.640625 L 41.28125 -53.8125 L 44.296875 -51.953125 L 46.578125 -49.75 L 47.953125 -48.6875 L 50.078125 -46.171875 L 50.71875 -44.78125 L 52.59375 -42.015625 L 53.8125 -38.75 L 54.234375 -37.296875 L 54.390625 -35.578125 L 55.609375 -30.9375 L 55.28125 -25.734375 L 55.359375 -24.34375 L 54.953125 -22.640625 L 54.71875 -20.921875 L 54.140625 -19.453125 L 53.8125 -17.828125 L 53 -16.28125 L 52.59375 -14.734375 L 50.078125 -10.671875 L 46.8125 -6.921875 L 39.890625 -2.28125 L 35.171875 -0.8125 L 29.96875 -0.078125 L 15.3125 0 L 13.59375 0.25 L 11.96875 0.25 L 10.265625 0 L 8.390625 0 L 7.078125 -0.734375 Z M 23.375 -13.109375 L 30.125 -13.4375 L 33.0625 -14.25 L 34.6875 -15.0625 L 35.984375 -15.875 L 36.96875 -17.1875 L 38.03125 -18.3125 L 39.078125 -19.78125 L 40.296875 -22.71875 L 40.796875 -24.265625 L 41.203125 -28.25 L 40.953125 -30.78125 L 39.984375 -35.578125 L 38.921875 -36.890625 L 38.03125 -38.4375 L 35.984375 -40.703125 L 33.21875 -42.5 L 29.96875 -43.484375 L 27.515625 -43.640625 L 25.8125 -43.5625 L 24.09375 -43.640625 L 21.734375 -42.75 L 20.765625 -41.28125 L 20.765625 -20.359375 L 20.515625 -18.734375 L 20.84375 -17.265625 L 20.6875 -15.640625 L 21.40625 -13.84375 Z M 23.375 -13.109375 "/></g></g></g><g fill="#ffffff" fill-opacity="1"><g transform="translate(168.236312, 78.696219)"><g><path d="M 3.90625 -2.359375 L 3.90625 -8.625 L 4.078125 -10.171875 L 5.046875 -11.71875 L 10.421875 -13.4375 L 11.234375 -15.21875 L 11.40625 -18.40625 L 11.078125 -21.90625 L 11.484375 -23.53125 L 11.15625 -26.703125 L 11.3125 -28.328125 L 11.40625 -31.671875 L 11.15625 -33.546875 L 11.078125 -34.9375 L 11.3125 -41.84375 L 10.265625 -43.3125 L 5.296875 -45.03125 L 4.484375 -46.578125 L 4.484375 -48.125 L 4.3125 -49.75 L 4.3125 -51.546875 L 4.484375 -52.921875 L 4.484375 -54.46875 L 5.375 -56.1875 L 7.171875 -57 L 10.34375 -56.828125 L 11.890625 -56.90625 L 16.859375 -56.828125 L 18.640625 -57 L 28.984375 -56.90625 L 31.59375 -56.1875 L 32.25 -54.546875 L 32.40625 -52.921875 L 32.25 -51.453125 L 32.25 -46.65625 L 31.34375 -45.109375 L 29.796875 -44.21875 L 28.015625 -44.125 L 26.46875 -43.234375 L 25.5625 -41.765625 L 25.5625 -38.34375 L 25.734375 -36.640625 L 25.5625 -35.015625 L 25.734375 -33.46875 L 25.5625 -30.9375 L 25.734375 -28.5 L 25.40625 -25.078125 L 25.734375 -21.828125 L 25.5625 -15.140625 L 26.46875 -13.515625 L 31.921875 -11.8125 L 33.0625 -10.421875 L 32.8125 -5.453125 L 32.96875 -3.984375 L 32.96875 -2.203125 L 32.078125 -0.734375 L 30.53125 0.078125 L 6.34375 -0.078125 L 4.71875 -0.65625 Z M 3.90625 -2.359375 "/></g></g></g><g fill="#ffffff" fill-opacity="1"><g transform="translate(205.199222, 78.696219)"><g><path d="M 6.265625 -2.609375 L 6.03125 -8.953125 L 6.1875 -10.671875 L 5.859375 -15.390625 L 6.109375 -18.734375 L 5.859375 -20.515625 L 5.9375 -23.609375 L 6.109375 -25.328125 L 6.109375 -29.390625 L 5.859375 -31.75 L 6.109375 -54.546875 L 6.765625 -56.265625 L 8.3125 -57 L 10.09375 -56.90625 L 11.640625 -57.15625 L 14.984375 -56.828125 L 16.53125 -57.078125 L 21.40625 -56.90625 L 22.796875 -57.078125 L 24.59375 -56.90625 L 26.21875 -57.078125 L 28.015625 -57 L 30.375 -57.078125 L 32.40625 -56.90625 L 39.15625 -55.53125 L 42.015625 -54.0625 L 46.078125 -50.96875 L 46.8125 -49.75 L 47.953125 -48.53125 L 50.15625 -44.046875 L 50.5625 -42.421875 L 50.8125 -40.875 L 51.21875 -39.328125 L 51.140625 -32.890625 L 50.234375 -29.796875 L 49.671875 -28.421875 L 48.765625 -26.953125 L 48.203125 -25.40625 L 47.21875 -24.015625 L 44.9375 -21.828125 L 44.046875 -20.109375 L 44.296875 -18.15625 L 46.734375 -13.921875 L 47.796875 -12.625 L 48.609375 -11.15625 L 49.578125 -9.6875 L 50.3125 -8.3125 L 52.921875 -4.3125 L 53.984375 -2.28125 L 53.65625 -0.5625 L 51.953125 -0.15625 L 50.15625 0 L 46.90625 0 L 45.265625 -0.15625 L 43.484375 0 L 40.546875 -0.15625 L 38.515625 -0.65625 L 36.890625 -2.109375 L 35.90625 -3.421875 L 35.171875 -4.796875 L 34.109375 -6.34375 L 31.84375 -10.421875 L 31.265625 -11.96875 L 29.15625 -14.8125 L 27.84375 -16.203125 L 25.8125 -16.859375 L 24.34375 -16.765625 L 22.875 -16.765625 L 21.25 -15.953125 L 20.515625 -14.328125 L 20.6875 -9.28125 L 20.4375 -5.78125 L 20.765625 -4.078125 L 20.59375 -2.359375 L 20.03125 -0.8125 L 17.5 0 L 15.0625 0 L 13.359375 -0.15625 L 10.015625 0.078125 L 8.46875 0 L 6.84375 -0.8125 Z M 22.875 -29.96875 L 24.671875 -29.96875 L 26.296875 -29.71875 L 32.65625 -30.28125 L 33.875 -30.859375 L 34.84375 -31.84375 L 35.75 -33.21875 L 36.390625 -34.84375 L 36.640625 -37.046875 L 36.484375 -39.40625 L 35.90625 -40.703125 L 35.09375 -41.9375 L 32.5625 -43.484375 L 28.828125 -43.96875 L 24.34375 -44.046875 L 23.046875 -43.96875 L 21.40625 -43.15625 L 20.4375 -41.53125 L 20.6875 -32.40625 L 21.5 -30.703125 Z M 22.875 -29.96875 "/></g></g></g><g fill="#ffffff" fill-opacity="1"><g transform="translate(261.620581, 78.696219)"><g><path d="M 5.859375 -2.359375 L 6.1875 -3.984375 L 6.265625 -5.625 L 6.109375 -8.796875 L 6.109375 -10.421875 L 5.9375 -12.296875 L 6.1875 -13.765625 L 6.109375 -15.3125 L 6.265625 -17.09375 L 6.03125 -18.8125 L 6.1875 -22.0625 L 5.9375 -25.234375 L 6.1875 -26.953125 L 6.1875 -41.53125 L 6.03125 -42.984375 L 6.1875 -44.703125 L 5.859375 -48.859375 L 6.1875 -51.21875 L 6.03125 -54.46875 L 6.84375 -56.265625 L 9.203125 -56.828125 L 19.859375 -57.078125 L 21.328125 -56.90625 L 24.515625 -57 L 26.140625 -56.828125 L 29.71875 -57 L 31.34375 -56.75 L 32.8125 -56.90625 L 39.328125 -56.828125 L 41.03125 -56.09375 L 41.84375 -54.46875 L 41.609375 -52.921875 L 41.53125 -51.140625 L 41.765625 -49.578125 L 41.9375 -46.25 L 41.03125 -44.78125 L 39.328125 -43.890625 L 23.6875 -43.8125 L 21.171875 -43.078125 L 20.359375 -40.703125 L 20.515625 -38.1875 L 21.5 -36.71875 L 22.875 -35.828125 L 29.3125 -35.90625 L 31.1875 -35.75 L 32.890625 -35.75 L 34.515625 -35.90625 L 37.78125 -35.828125 L 39.15625 -34.9375 L 39.890625 -33.390625 L 40.0625 -31.75 L 39.890625 -25.328125 L 39.078125 -23.78125 L 37.453125 -22.875 L 35.984375 -22.796875 L 34.28125 -22.96875 L 32.078125 -22.796875 L 27.765625 -23.046875 L 26.140625 -22.875 L 22.96875 -22.875 L 21.5 -21.984375 L 20.765625 -20.28125 L 20.6875 -16.28125 L 21.40625 -13.765625 L 23.125 -12.78125 L 24.921875 -12.953125 L 26.703125 -12.78125 L 28.25 -13.03125 L 39 -12.859375 L 41.4375 -12.046875 L 42.5 -10.421875 L 42.34375 -8.875 L 42.421875 -3.828125 L 42.265625 -2.28125 L 41.53125 -0.734375 L 39.8125 0.078125 L 38.265625 0.25 L 33.296875 -0.078125 L 28.328125 0.15625 L 26.875 -0.078125 L 8.46875 0.078125 L 6.921875 -0.8125 Z M 5.859375 -2.359375 "/></g></g></g><g fill="#ffffff" fill-opacity="1"><g transform="translate(308.272014, 78.696219)"><g><path d="M 6.109375 -2.53125 L 6.265625 -5.625 L 6.03125 -12.125 L 6.1875 -13.765625 L 6.03125 -20.28125 L 6.265625 -23.453125 L 6.03125 -25.15625 L 6.265625 -26.703125 L 6.03125 -30.203125 L 6.265625 -33.296875 L 5.9375 -39.8125 L 6.1875 -41.4375 L 5.9375 -43.078125 L 6.1875 -44.859375 L 6.03125 -47.953125 L 6.109375 -49.578125 L 5.9375 -51.21875 L 5.9375 -54.546875 L 7.171875 -56.09375 L 8.625 -57 L 10.34375 -56.90625 L 11.8125 -57 L 13.4375 -56.828125 L 18.640625 -57 L 20.28125 -56.828125 L 31.84375 -56.75 L 35.171875 -56.09375 L 39.65625 -54.640625 L 41.28125 -53.8125 L 44.296875 -51.953125 L 46.578125 -49.75 L 47.953125 -48.6875 L 50.078125 -46.171875 L 50.71875 -44.78125 L 52.59375 -42.015625 L 53.8125 -38.75 L 54.234375 -37.296875 L 54.390625 -35.578125 L 55.609375 -30.9375 L 55.28125 -25.734375 L 55.359375 -24.34375 L 54.953125 -22.640625 L 54.71875 -20.921875 L 54.140625 -19.453125 L 53.8125 -17.828125 L 53 -16.28125 L 52.59375 -14.734375 L 50.078125 -10.671875 L 46.8125 -6.921875 L 39.890625 -2.28125 L 35.171875 -0.8125 L 29.96875 -0.078125 L 15.3125 0 L 13.59375 0.25 L 11.96875 0.25 L 10.265625 0 L 8.390625 0 L 7.078125 -0.734375 Z M 23.375 -13.109375 L 30.125 -13.4375 L 33.0625 -14.25 L 34.6875 -15.0625 L 35.984375 -15.875 L 36.96875 -17.1875 L 38.03125 -18.3125 L 39.078125 -19.78125 L 40.296875 -22.71875 L 40.796875 -24.265625 L 41.203125 -28.25 L 40.953125 -30.78125 L 39.984375 -35.578125 L 38.921875 -36.890625 L 38.03125 -38.4375 L 35.984375 -40.703125 L 33.21875 -42.5 L 29.96875 -43.484375 L 27.515625 -43.640625 L 25.8125 -43.5625 L 24.09375 -43.640625 L 21.734375 -42.75 L 20.765625 -41.28125 L 20.765625 -20.359375 L 20.515625 -18.734375 L 20.84375 -17.265625 L 20.6875 -15.640625 L 21.40625 -13.84375 Z M 23.375 -13.109375 "/></g></g></g></svg>